# xmcd
# Track frame offsets:
# 150
# 15522
# 25208
# 38213
# 50732
# 65297
# 78087
# 90259
# 107149
# 119449
# 132605
# 148245
# 159493
# 172703
# 186533
# 201601
# 214967
# 226648
# 238315
# 250905
#
# Disc length: 3504 seconds
# Revision: 0
# Processed by: cddbd v1.4PL0 Copyright (c) Steve Scherf et al.
# Submitted via: VisiTrax 2.9.5.181 - For more info visit www.synapsa.com
#
DISCID=1c0dae14
DTITLE=Merle Haggard - Salutes The Greats
DYEAR=1900
DGENRE=Misc
TTITLE0=The Way It Was In '51
TTITLE1=Moanin' The Blues
TTITLE2=My Heart Would Know
TTITLE3=Lovesick Blues (Live)
TTITLE4=I Saw The Light
TTITLE5=San Antonio Rose
TTITLE6=Take Me Back To Tulsa
TTITLE7=Brain Cloudy Blues
TTITLE8=Right Or Wrong
TTITLE9=Stay A Little Longer
TTITLE10=SaluMule Skinner Blues (Blue Yodel No. 8)
TTITLE11=My Rough And Rowdy Ways
TTITLE12=Waiting For A Train
TTITLE13=Peach Picking Time Down In Georgia
TTITLE14=Train Whistle Blues
TTITLE15=Mom And Dad's Waltz
TTITLE16=It Meant Goodbye To Me (When You Said Hello To Him)
TTITLE17=I'm An Old, Old Man (Trying To Live While I Can)
TTITLE18=I Never Go Around Mirrors
TTITLE19=Goodbye Lefty
EXTD=
EXTT0=
EXTT1=
EXTT2=
EXTT3=
EXTT4=
EXTT5=
EXTT6=
EXTT7=
EXTT8=
EXTT9=
EXTT10=
EXTT11=
EXTT12=
EXTT13=
EXTT14=
EXTT15=
EXTT16=
EXTT17=
EXTT18=
EXTT19=
PLAYORDER=
